<svg width="117" height="25" viewBox="0 0 117 25" fill="none" xmlns="http://www.w3.org/2000/svg">
<path d="M5.25 4.34375V24.5H0.75V1.09375H4.92188L5.25 4.34375ZM15.9531 9.35938V9.6875C15.9531 10.9167 15.8073 12.0573 15.5156 13.1094C15.2344 14.1615 14.8177 15.0781 14.2656 15.8594C13.7135 16.6302 13.026 17.2344 12.2031 17.6719C11.3906 18.099 10.4531 18.3125 9.39062 18.3125C8.35938 18.3125 7.46354 18.1042 6.70312 17.6875C5.94271 17.2708 5.30208 16.6875 4.78125 15.9375C4.27083 15.1771 3.85938 14.2969 3.54688 13.2969C3.23438 12.2969 2.99479 11.224 2.82812 10.0781V9.21875C2.99479 7.98958 3.23438 6.86458 3.54688 5.84375C3.85938 4.8125 4.27083 3.92188 4.78125 3.17188C5.30208 2.41146 5.9375 1.82292 6.6875 1.40625C7.44792 0.989583 8.33854 0.78125 9.35938 0.78125C10.4323 0.78125 11.375 0.984375 12.1875 1.39062C13.0104 1.79688 13.6979 2.38021 14.25 3.14062C14.8125 3.90104 15.2344 4.80729 15.5156 5.85938C15.8073 6.91146 15.9531 8.07812 15.9531 9.35938ZM11.4375 9.6875V9.35938C11.4375 8.64062 11.375 7.97917 11.25 7.375C11.1354 6.76042 10.9479 6.22396 10.6875 5.76562C10.4375 5.30729 10.1042 4.95312 9.6875 4.70312C9.28125 4.44271 8.78646 4.3125 8.20312 4.3125C7.58854 4.3125 7.0625 4.41146 6.625 4.60938C6.19792 4.80729 5.84896 5.09375 5.57812 5.46875C5.30729 5.84375 5.10417 6.29167 4.96875 6.8125C4.83333 7.33333 4.75 7.92188 4.71875 8.57812V10.75C4.77083 11.5208 4.91667 12.2135 5.15625 12.8281C5.39583 13.4323 5.76562 13.9115 6.26562 14.2656C6.76562 14.6198 7.42188 14.7969 8.23438 14.7969C8.82812 14.7969 9.32812 14.6667 9.73438 14.4062C10.1406 14.1354 10.4688 13.7656 10.7188 13.2969C10.9792 12.8281 11.1615 12.2865 11.2656 11.6719C11.3802 11.0573 11.4375 10.3958 11.4375 9.6875ZM22.125 1.09375L24.9219 6.23438L27.7969 1.09375H32.5938L27.8125 9.35938L32.8125 18H28L24.9531 12.5625L21.9062 18H17.0938L22.0938 9.35938L17.3125 1.09375H22.125ZM48.4688 4.70312V18H43.9688V1.09375H48.1875L48.4688 4.70312ZM47.8125 8.95312H46.5938C46.5938 7.70312 46.7552 6.57812 47.0781 5.57812C47.401 4.56771 47.8542 3.70833 48.4375 3C49.0208 2.28125 49.7135 1.73438 50.5156 1.35938C51.3281 0.973958 52.2344 0.78125 53.2344 0.78125C54.026 0.78125 54.75 0.895833 55.4062 1.125C56.0625 1.35417 56.625 1.71875 57.0938 2.21875C57.5729 2.71875 57.9375 3.38021 58.1875 4.20312C58.4479 5.02604 58.5781 6.03125 58.5781 7.21875V18H54.0469V7.20312C54.0469 6.45312 53.9427 5.86979 53.7344 5.45312C53.526 5.03646 53.2188 4.74479 52.8125 4.57812C52.4167 4.40104 51.9271 4.3125 51.3438 4.3125C50.7396 4.3125 50.2135 4.43229 49.7656 4.67188C49.3281 4.91146 48.9635 5.24479 48.6719 5.67188C48.3906 6.08854 48.1771 6.57812 48.0312 7.14062C47.8854 7.70312 47.8125 8.30729 47.8125 8.95312ZM69.7812 18.3125C68.4688 18.3125 67.2917 18.1042 66.25 17.6875C65.2083 17.2604 64.3229 16.6719 63.5938 15.9219C62.875 15.1719 62.3229 14.3021 61.9375 13.3125C61.5521 12.3125 61.3594 11.25 61.3594 10.125V9.5C61.3594 8.21875 61.5417 7.04688 61.9062 5.98438C62.2708 4.92188 62.7917 4 63.4688 3.21875C64.1562 2.4375 64.9896 1.83854 65.9688 1.42188C66.9479 0.994792 68.0521 0.78125 69.2812 0.78125C70.4792 0.78125 71.5417 0.979167 72.4688 1.375C73.3958 1.77083 74.1719 2.33333 74.7969 3.0625C75.4323 3.79167 75.9115 4.66667 76.2344 5.6875C76.5573 6.69792 76.7188 7.82292 76.7188 9.0625V10.9375H63.2812V7.9375H72.2969V7.59375C72.2969 6.96875 72.1823 6.41146 71.9531 5.92188C71.7344 5.42188 71.401 5.02604 70.9531 4.73438C70.5052 4.44271 69.9323 4.29688 69.2344 4.29688C68.6406 4.29688 68.1302 4.42708 67.7031 4.6875C67.276 4.94792 66.9271 5.3125 66.6562 5.78125C66.3958 6.25 66.1979 6.80208 66.0625 7.4375C65.9375 8.0625 65.875 8.75 65.875 9.5V10.125C65.875 10.8021 65.9688 11.4271 66.1562 12C66.3542 12.5729 66.6302 13.0677 66.9844 13.4844C67.349 13.901 67.7865 14.224 68.2969 14.4531C68.8177 14.6823 69.4062 14.7969 70.0625 14.7969C70.875 14.7969 71.6302 14.6406 72.3281 14.3281C73.0365 14.0052 73.6458 13.5208 74.1562 12.875L76.3438 15.25C75.9896 15.7604 75.5052 16.25 74.8906 16.7188C74.2865 17.1875 73.5573 17.5729 72.7031 17.875C71.849 18.1667 70.875 18.3125 69.7812 18.3125ZM84.1094 13.625L87.625 1.09375H90.4844L89.5625 6.01562L86.0469 18H83.6562L84.1094 13.625ZM82.3281 1.09375L84.8438 13.6094L85.0781 18H82.2656L77.9844 1.09375H82.3281ZM93.7031 13.4062L96.1562 1.09375H100.516L96.2344 18H93.4375L93.7031 13.4062ZM90.875 1.09375L94.375 13.5312L94.8594 18H92.4531L88.9375 6.03125L88.0469 1.09375H90.875ZM111.922 13.3281C111.922 13.0052 111.828 12.7135 111.641 12.4531C111.453 12.1927 111.104 11.9531 110.594 11.7344C110.094 11.5052 109.37 11.2969 108.422 11.1094C107.568 10.9219 106.771 10.6875 106.031 10.4062C105.302 10.1146 104.667 9.76562 104.125 9.35938C103.594 8.95312 103.177 8.47396 102.875 7.92188C102.573 7.35938 102.422 6.71875 102.422 6C102.422 5.29167 102.573 4.625 102.875 4C103.188 3.375 103.63 2.82292 104.203 2.34375C104.786 1.85417 105.495 1.47396 106.328 1.20312C107.172 0.921875 108.12 0.78125 109.172 0.78125C110.641 0.78125 111.901 1.01562 112.953 1.48438C114.016 1.95312 114.828 2.59896 115.391 3.42188C115.964 4.23438 116.25 5.16146 116.25 6.20312H111.75C111.75 5.76562 111.656 5.375 111.469 5.03125C111.292 4.67708 111.01 4.40104 110.625 4.20312C110.25 3.99479 109.76 3.89062 109.156 3.89062C108.656 3.89062 108.224 3.97917 107.859 4.15625C107.495 4.32292 107.214 4.55208 107.016 4.84375C106.828 5.125 106.734 5.4375 106.734 5.78125C106.734 6.04167 106.786 6.27604 106.891 6.48438C107.005 6.68229 107.188 6.86458 107.438 7.03125C107.688 7.19792 108.01 7.35417 108.406 7.5C108.812 7.63542 109.312 7.76042 109.906 7.875C111.125 8.125 112.214 8.45312 113.172 8.85938C114.13 9.25521 114.891 9.79688 115.453 10.4844C116.016 11.1615 116.297 12.0521 116.297 13.1562C116.297 13.9062 116.13 14.5938 115.797 15.2188C115.464 15.8438 114.984 16.3906 114.359 16.8594C113.734 17.3177 112.984 17.6771 112.109 17.9375C111.245 18.1875 110.271 18.3125 109.188 18.3125C107.615 18.3125 106.281 18.0312 105.188 17.4688C104.104 16.9062 103.281 16.1927 102.719 15.3281C102.167 14.4531 101.891 13.5573 101.891 12.6406H106.156C106.177 13.2552 106.333 13.75 106.625 14.125C106.927 14.5 107.307 14.7708 107.766 14.9375C108.234 15.1042 108.74 15.1875 109.281 15.1875C109.865 15.1875 110.349 15.1094 110.734 14.9531C111.12 14.7865 111.411 14.5677 111.609 14.2969C111.818 14.0156 111.922 13.6927 111.922 13.3281Z" fill="#E1E1E6"/>
<path d="M35 15.8281C35 15.1615 35.2292 14.6042 35.6875 14.1562C36.1562 13.7083 36.776 13.4844 37.5469 13.4844C38.3177 13.4844 38.9323 13.7083 39.3906 14.1562C39.8594 14.6042 40.0938 15.1615 40.0938 15.8281C40.0938 16.4948 39.8594 17.0521 39.3906 17.5C38.9323 17.9479 38.3177 18.1719 37.5469 18.1719C36.776 18.1719 36.1562 17.9479 35.6875 17.5C35.2292 17.0521 35 16.4948 35 15.8281Z" fill="#61DCFB"/>
</svg>
